<svg xmlns="http://www.w3.org/2000/svg" width="410" height="404" viewBox="0 0 410 404" fill="none"><path d="M399.641 59.5246L215.643 388.545C211.844 395.338 202.201 395.378 198.362 388.618L10.5817 59.5563C6.38087 52.1896 12.6802 43.2665 21.0281 44.7586L205.223 77.6824C206.398 77.8924 207.601 77.8904 208.776 77.6763L389.119 44.8058C397.439 43.2894 403.768 52.1434 399.627 59.5326L399.641 59.5246Z" fill="url(#paint0_linear)"/><path d="M292.965 1.5744L156.801 28.2552C154.563 28.6937 152.906 30.5903 152.771 32.8664L144.395 174.33C144.198 177.662 147.258 180.248 150.51 179.498L188.42 170.749C191.967 169.931 195.072 173.055 194.22 176.61L183.67 219.47C182.808 223.067 186.129 226.087 189.644 225.155L212.947 219.072C216.468 218.139 219.786 221.169 218.916 224.77L201.398 297.644C200.278 302.34 206.045 305.276 208.944 301.369L210.5 299.207L323.493 112.98C325.744 109.415 322.657 105.055 318.624 105.818L280.18 113.114C276.61 113.787 273.755 110.355 275.14 106.967L298.731 48.3933C300.125 44.9836 297.233 41.5143 293.606 42.2037Z" fill="url(#paint1_linear)"/><defs><linearGradient id="paint0_linear" x1="6.00017" y1="32.9999" x2="235" y2="344" gradientUnits="userSpaceOnUse"><stop stop-color="#41D1FF"/><stop offset="1" stop-color="#BD34FE"/></linearGradient><linearGradient id="paint1_linear" x1="194.651" y1="8.81818" x2="236.076" y2="292.989" gradientUnits="userSpaceOnUse"><stop stop-color="#FFEA83"/><stop offset="0.0833333" stop-color="#FFDD35"/><stop offset="1" stop-color="#FFA800"/></linearGradient></defs></svg>
